<?xml version="1.0" encoding="utf-8"?>
<!-- Generator: Adobe Illustrator 25.2.1, SVG Export Plug-In . SVG Version: 6.00 Build 0)  -->
<svg version="1.1" id="Layer_1" xmlns="http://www.w3.org/2000/svg" xmlns:xlink="http://www.w3.org/1999/xlink" x="0px" y="0px"
	 viewBox="0 0 550 112.5" style="enable-background:new 0 0 550 112.5;" xml:space="preserve">
<style type="text/css">
	.st0{fill:#FFFFFF;}
	.st1{display:none;fill:#01A48F;}
	.st2{display:none;fill:#747474;}
	.st3{fill:#747474;}
	.st4{fill:#E85127;}
	.st5{fill:#7DB828;}
	.st6{fill:#319ED9;}
	.st7{fill:#FAB70F;}
	.st8{fill:#57575A;}
	.st9{fill:#0077C0;}
	.st10{fill:url(#SVGID_1_);}
	.st11{fill:#00ACE4;}
</style>
<g id="Layer_2_1_">
	<g id="Capa_1">
		<path class="st0" d="M509.1,0.1V0H282l0.3,0.1h-14.5L268,0H40.9v0.1C18.3,0.1,0,18.4,0,41v71.4h550V41
			C550,18.4,531.7,0.1,509.1,0.1z"/>
		<path class="st1" d="M81.7,73.6h-3.1v2.8H82v0.9h-4.4v-7.9h4.3v0.9h-3.2v2.5h3.1V73.6z"/>
		<path class="st1" d="M89.5,69.5c0.7-0.1,1.4-0.2,2.2-0.2c1.2-0.1,2.3,0.3,3.2,1c0.8,0.7,1.2,1.8,1.2,2.8c0.1,1.1-0.4,2.2-1.1,3.1
			c-1,0.8-2.2,1.2-3.5,1.1c-0.6,0-1.2,0-1.8-0.1L89.5,69.5z M90.5,76.5c0.3,0,0.7,0.1,1,0.1c1.6,0.2,3.1-0.9,3.4-2.6
			c0-0.3,0-0.5,0-0.8c0-1.9-1-3-3.2-3c-0.4,0-0.8,0-1.2,0.1L90.5,76.5z"/>
		<path class="st1" d="M104.4,69.4v4.7c0,1.8,0.8,2.5,1.8,2.5s1.9-0.8,1.9-2.5v-4.7h1V74c0,2.4-1.3,3.4-3,3.4s-2.8-0.9-2.8-3.4v-4.6
			H104.4z"/>
		<path class="st1" d="M122.6,77.1c-0.7,0.3-1.4,0.4-2.1,0.4c-2,0.1-3.8-1.4-3.9-3.5c0-0.2,0-0.4,0-0.5c-0.1-2.2,1.5-4,3.7-4.1
			c0.1,0,0.3,0,0.4,0c0.6,0,1.3,0.1,1.9,0.3l-0.2,0.8c-0.5-0.2-1-0.3-1.6-0.3c-1.6-0.1-3,1.1-3.1,2.8c0,0.2,0,0.3,0,0.5
			c-0.2,1.6,1,3,2.5,3.2c0.2,0,0.3,0,0.5,0c0.6,0,1.1-0.1,1.7-0.3L122.6,77.1z"/>
		<path class="st1" d="M131.4,74.8l-0.8,2.5h-1l2.7-7.9h1.2l2.7,7.9H135l-0.9-2.5H131.4z M134,74l-0.8-2.3c-0.2-0.5-0.3-1-0.4-1.4
			l0,0c-0.1,0.5-0.2,1-0.4,1.4l-0.8,2.3H134z"/>
		<path class="st1" d="M148.7,77.1c-0.7,0.3-1.4,0.4-2.1,0.4c-2,0.1-3.8-1.4-3.9-3.4c0-0.2,0-0.4,0-0.6c-0.1-2.2,1.5-4,3.7-4.1
			c0.1,0,0.3,0,0.4,0c0.6,0,1.3,0.1,1.9,0.3l-0.2,0.8c-0.5-0.2-1-0.3-1.6-0.3c-1.6-0.1-3,1.1-3.1,2.8c0,0.2,0,0.3,0,0.5
			c-0.2,1.6,1,3,2.5,3.2c0.2,0,0.3,0,0.5,0c0.6,0,1.1-0.1,1.7-0.3L148.7,77.1z"/>
		<path class="st1" d="M157.1,69.4v7.9h-1v-7.9H157.1z"/>
		<path class="st1" d="M171.8,73.3c0,2.7-1.6,4.2-3.7,4.2s-3.6-1.6-3.6-4s1.6-4.2,3.7-4.2S171.8,70.9,171.8,73.3z M165.7,73.4
			c0,1.7,0.9,3.2,2.5,3.2s2.5-1.5,2.5-3.3c0-1.6-0.8-3.2-2.5-3.2S165.7,71.7,165.7,73.4z M169.9,67.6l-1.5,1.4h-0.8l1.1-1.3
			L169.9,67.6z"/>
		<path class="st1" d="M179.2,77.3v-7.9h1.1l2.5,4c0.5,0.8,1,1.7,1.4,2.6l0,0c-0.1-1.1-0.1-2-0.1-3.2v-3.3h1v7.9h-1l-2.5-4
			c-0.5-0.8-1-1.7-1.5-2.6l0,0c0.1,1,0.1,1.9,0.1,3.2v3.4L179.2,77.3z"/>
		<path class="st2" d="M72.4,52.8c-2.8,2.8-7.3,2.8-10.1,0c-2.8-2.8-2.8-7.3,0-10.1l0,0c1.3-1.4,3.1-2.1,5-2.1c1.9,0,3.7,0.8,5,2.1
			l3.4-3.4c-1.1-1.1-2.3-1.9-3.7-2.5c-1.4-0.6-3-1-4.6-1c-3.2,0-6.2,1.2-8.4,3.5c-4.6,4.6-4.7,12.1,0,16.8c0,0,0,0,0,0
			c3.4,3.4,8.5,4.4,13,2.6c1.4-0.6,2.7-1.5,3.8-2.6L72.4,52.8z"/>
		<path class="st2" d="M77.5,35.9h7.7c2.3,0,4.5,0.8,6.1,2.4c1.5,1.4,2.4,3.4,2.3,5.4v0.7c0,1.6-0.5,3.2-1.5,4.4
			c-0.8,1.2-2,2-3.4,2.4l5.3,8.2h-5.7l-6-9.2v9.2h-4.7L77.5,35.9z M85.6,47.2c0.8,0,1.6-0.3,2.2-0.9c0.6-0.6,1-1.5,0.9-2.5
			c0-0.9-0.3-1.7-0.9-2.3c-0.8-0.7-1.8-1-2.9-1h-2.7v6.6L85.6,47.2z"/>
		<path class="st2" d="M96.2,35.9h4.7v23.5h-4.7V35.9z"/>
		<polygon class="st2" points="103,35.9 103,40.6 108.9,40.6 108.9,59.5 113.6,59.5 113.6,40.6 119.5,40.6 119.5,35.9 		"/>
		<polygon class="st2" points="135.6,40.6 135.6,35.9 121.5,35.9 121.5,59.5 135.6,59.5 135.6,54.7 126.2,54.7 126.2,50 133.3,50 
			133.3,45.3 126.2,45.3 126.2,40.6 		"/>
		<path class="st2" d="M137.8,35.9h7.6c2.3,0,4.5,0.8,6.1,2.4c1.5,1.4,2.4,3.4,2.3,5.4v0.7c0,1.6-0.5,3.2-1.5,4.4
			c-0.8,1.2-2,2-3.4,2.4l5.3,8.2h-5.8l-6-9.2v9.2h-4.7L137.8,35.9z M145.9,47.2c0.8,0,1.6-0.3,2.2-0.9c0.6-0.6,1-1.5,0.9-2.5
			c0-0.9-0.3-1.7-0.9-2.3c-0.8-0.7-1.8-1-2.9-1h-2.6v6.6L145.9,47.2z"/>
		<polygon class="st2" points="154.6,35.9 154.6,40.6 160.5,40.6 160.5,59.5 165.2,59.5 165.2,40.6 171.1,40.6 171.1,35.9 		"/>
		<polygon class="st2" points="187.2,40.6 187.2,35.9 173.1,35.9 173.1,59.5 187.2,59.5 187.2,54.7 177.8,54.7 177.8,50 184.9,50 
			184.9,45.3 177.8,45.3 177.8,40.6 		"/>
		<path class="st2" d="M205.8,52.8c-2.8,2.8-7.3,2.8-10.1,0c-2.8-2.8-2.8-7.3,0-10.1c1.3-1.4,3.1-2.1,5-2.1c1.9,0,3.7,0.8,5,2.1
			l3.4-3.4c-1.1-1.1-2.4-1.9-3.8-2.5c-1.5-0.6-3-1-4.6-1c-6.6,0-11.9,5.3-11.9,11.9c0,6.6,5.3,11.9,11.8,11.9c1.6,0,3.2-0.3,4.7-0.9
			c1.4-0.6,2.7-1.5,3.8-2.6L205.8,52.8z"/>
		<circle class="st2" cx="200.7" cy="47.6" r="3.6"/>
		<polygon class="st3" points="372.7,68.9 372.7,49.4 372.5,49.4 364.7,68.9 361.5,68.9 353.6,49.4 353.4,49.4 353.4,68.9 
			349.3,68.9 349.3,43.5 355.6,43.5 363.2,62.4 371,43.5 377.1,43.5 377.1,68.9 		"/>
		<path class="st3" d="M383.5,43c-0.7,0-1.3,0.2-1.8,0.7c-0.5,0.5-0.8,1.1-0.8,1.8c0,0.7,0.3,1.3,0.8,1.8c0.5,0.5,1.2,0.7,1.9,0.7
			c0.7,0,1.4-0.2,1.9-0.7c0.5-0.4,0.8-1.1,0.8-1.8c0-0.7-0.3-1.3-0.8-1.8C384.9,43.2,384.2,43,383.5,43 M385.6,50.8h-4.3v18.2h4.3
			V50.8z"/>
		<path class="st3" d="M398.5,50.3c-1.8,0-3.6,0.4-5.3,1.3c-1.5,0.8-2.7,2-3.5,3.5c-0.8,1.6-1.2,3.4-1.2,5.2c0,1.6,0.4,3.3,1.2,4.7
			c0.8,1.4,1.9,2.5,3.2,3.2c1.5,0.8,3.1,1.2,4.7,1.1c1.8,0.1,3.6-0.4,5.3-1.2l0,0v-4l-0.2,0.1c-0.7,0.5-1.4,0.8-2.1,1.1
			c-0.7,0.2-1.4,0.4-2.1,0.4c-1.5,0.1-3-0.5-4-1.6c-1.1-1.2-1.6-2.7-1.5-4.3c-0.1-1.6,0.5-3.2,1.6-4.5c1.1-1.1,2.5-1.7,4.1-1.7
			c1.5,0,2.9,0.5,4.1,1.4l0.2,0.1v-4.1h-0.1c-0.6-0.3-1.3-0.5-2-0.7C400.1,50.4,399.3,50.3,398.5,50.3"/>
		<path class="st3" d="M410.6,53.9v-3.2h-4.3v18.2h4.3v-9.3c-0.1-1.4,0.3-2.7,1.1-3.9c0.6-0.9,1.7-1.5,2.8-1.5
			c0.4,0,0.9,0.1,1.3,0.2c0.4,0.1,0.7,0.2,1,0.4L417,55v-4.3h-0.1c-0.5-0.2-1.1-0.3-1.7-0.2c-1.1,0-2.1,0.3-2.9,1
			C411.6,52.1,411,52.9,410.6,53.9L410.6,53.9z"/>
		<path class="st3" d="M427.1,50.3c-5-0.4-9.3,3.2-9.8,8.2c0,0.5,0,1,0,1.5c-0.4,4.8,3.2,9,8,9.3c0.4,0,0.9,0,1.3,0
			c2.6,0.1,5.1-0.8,7-2.7c1.8-1.9,2.7-4.5,2.6-7.1c0.1-2.5-0.7-5-2.4-6.9C432,51,429.5,50.1,427.1,50.3 M426.8,65.8
			c-1.4,0.1-2.8-0.5-3.7-1.6c-1-1.2-1.4-2.8-1.3-4.4c-0.1-1.6,0.4-3.2,1.3-4.5c0.9-1.1,2.3-1.6,3.7-1.6c1.4-0.1,2.7,0.5,3.6,1.5
			c1,1.3,1.4,2.9,1.3,4.5c0.1,1.6-0.3,3.2-1.2,4.5C429.6,65.3,428.2,65.9,426.8,65.8"/>
		<path class="st3" d="M445.4,50.3c-1.8-0.1-3.6,0.5-5.1,1.6c-1.3,0.9-2,2.4-2,4c0,0.8,0.1,1.5,0.4,2.3c0.3,0.7,0.7,1.2,1.3,1.7
			c0.8,0.6,1.7,1.1,2.7,1.5c0.8,0.3,1.5,0.6,2.2,1c0.4,0.2,0.7,0.5,1,0.8c0.2,0.3,0.3,0.6,0.3,1c0,1.2-0.9,1.8-2.8,1.8
			c-0.8,0-1.6-0.2-2.4-0.4c-0.9-0.3-1.7-0.7-2.5-1.2l-0.2-0.1v4.2h0.1c0.7,0.3,1.5,0.6,2.3,0.7c0.8,0.2,1.6,0.3,2.5,0.3
			c1.9,0.1,3.8-0.4,5.4-1.6c1.3-1,2-2.5,2-4.1c0-1.1-0.3-2.2-1.1-3.1c-1-1-2.3-1.8-3.7-2.3c-0.9-0.3-1.8-0.8-2.6-1.3
			c-0.4-0.4-0.6-0.9-0.5-1.4c0-0.5,0.2-1,0.7-1.3c0.6-0.4,1.2-0.6,1.9-0.5c0.8,0,1.5,0.1,2.2,0.3c0.7,0.2,1.3,0.5,1.9,0.9l0.2,0.1
			v-4h-0.1c-0.6-0.3-1.3-0.4-2-0.5c-0.7-0.1-1.4-0.2-2.2-0.2"/>
		<path class="st3" d="M462.2,50.3c-5-0.4-9.3,3.2-9.8,8.2c0,0.5,0,1,0,1.5c-0.4,4.8,3.2,9,8,9.3c0.4,0,0.9,0,1.3,0
			c2.6,0.1,5.1-0.8,7-2.7c1.8-1.9,2.7-4.5,2.6-7.1c0.1-2.5-0.7-5-2.4-6.8C467.2,51,464.7,50.1,462.2,50.3 M462,65.8
			c-1.4,0.1-2.8-0.5-3.7-1.6c-1-1.2-1.4-2.8-1.3-4.4c-0.1-1.6,0.4-3.2,1.3-4.5c0.9-1.1,2.3-1.6,3.7-1.6c1.4-0.1,2.7,0.5,3.6,1.5
			c1,1.3,1.4,2.9,1.3,4.5c0.1,1.6-0.3,3.2-1.2,4.5C464.7,65.4,463.4,65.9,462,65.8"/>
		<path class="st3" d="M494.5,54.2v-3.5h-4.4v-5.4H490l-4.1,1.2h-0.1v4.1h-6.5v-2.2c-0.1-0.9,0.2-1.7,0.7-2.4c0.5-0.6,1.2-0.9,2-0.8
			c0.7,0,1.3,0.2,1.9,0.4l0.2,0.1V42H484c-0.8-0.2-1.6-0.3-2.4-0.3c-1.2,0-2.4,0.3-3.5,0.8c-1,0.5-1.8,1.3-2.4,2.3
			c-0.6,1-0.9,2.2-0.8,3.4v2.5h-3v3.5h3v14.7h4.4V54.2h6.5v9.4c0,3.8,1.8,5.8,5.5,5.8c0.6,0,1.3-0.1,1.9-0.2
			c0.5-0.1,0.9-0.2,1.4-0.4h0.1v-3.6l-0.2,0.1c-0.3,0.2-0.6,0.3-0.9,0.4c-0.3,0.1-0.6,0.1-0.9,0.1c-0.7,0.1-1.4-0.2-1.9-0.7
			c-0.5-0.7-0.7-1.5-0.6-2.3v-8.6H494.5z"/>
		<rect x="293.5" y="35" class="st4" width="20.4" height="20.2"/>
		<rect x="316" y="35" class="st5" width="20.4" height="20.2"/>
		<rect x="293.5" y="57.3" class="st6" width="20.4" height="20.2"/>
		<rect x="316" y="57.3" class="st7" width="20.4" height="20.2"/>
		<rect x="248.8" y="37" class="st3" width="1.1" height="38.4"/>
	</g>
</g>
<g id="Layer_2">
	<rect x="41.2" y="26.2" class="st0" width="179.2" height="59.6"/>
	
		<image style="display:none;overflow:visible;" width="1406" height="425" xlink:href="../../../../Downloads/logo-gris-horizontal (1).png"  transform="matrix(0.1178 0 0 0.1178 51.2073 145.8749)">
	</image>
	<polygon class="st8" points="107.7,72.1 104.1,72.1 112.6,46.3 115.6,46.3 	"/>
	<polygon class="st8" points="121.5,72.1 125.6,72.1 116.9,46.3 113.1,46.3 	"/>
	<polygon class="st8" points="184.1,72.1 180.5,72.1 189,46.3 192,46.3 	"/>
	<polygon class="st8" points="197.9,72.1 202,72.1 193.2,46.3 189.4,46.3 	"/>
	<polygon class="st8" points="125,72.1 128.3,72.1 128.3,46.1 124.9,46.1 	"/>
	<polygon class="st8" points="204.5,72.1 207.9,72.1 207.9,57.6 204.4,57.6 	"/>
	<polygon class="st8" points="164.7,72.1 168.2,72.1 168.2,46.1 164.6,46.1 	"/>
	<polygon class="st8" points="167.9,58.4 167.6,62.5 183.1,46 178.9,46.1 	"/>
	<polygon class="st8" points="205.6,58.7 207.7,61.1 216.8,46 213.1,46 	"/>
	<polygon class="st8" points="206.9,58.7 204.8,61.1 195.7,46 199.4,46 	"/>
	<polygon class="st8" points="169.8,60.2 179.2,72.1 183.5,72.1 172,57.3 	"/>
	<polygon class="st8" points="144,63.9 147.3,63.9 147.3,46.1 143.9,46.1 	"/>
	<polygon class="st8" points="159.3,63.9 162.6,63.9 162.6,46.1 159.2,46.1 	"/>
	<polygon class="st8" points="140.6,72.1 145.1,72.1 135.6,60.5 132,61.2 	"/>
	<polygon class="st8" points="128.1,58.9 128.1,61.7 135.6,61.7 135.6,58.9 	"/>
	<polygon class="st8" points="128.1,46.1 128.1,49 132.8,49 132.8,46.1 	"/>
	<path class="st8" d="M131.4,58.9c0,0,6.4,0.6,6.3-5.1c0-5.7-6.3-4.8-6.3-4.8l-0.1-2.9h3.3c0,0,5.6,0.5,6.5,5.5s-1.9,7.6-3.4,8.3
		s-3.5,1.7-3.5,1.7l-2.6-1.3L131.4,58.9z"/>
	<g id="Layer_4">
		<circle class="st9" cx="76.1" cy="59.4" r="25"/>
	</g>
	<g id="Layer_5">
		<polyline class="st9" points="52.4,51.4 52.4,42.2 54.8,42.2 52.4,41 52.4,40.4 56.5,40.4 52.4,38.1 52.4,37 65.6,37 		"/>
		<polyline class="st9" points="99.9,51.4 99.9,42.2 97.6,42.2 99.9,41 99.9,40.4 95.8,40.4 99.9,38.1 99.9,37 86.7,37 		"/>
	</g>
	
		<linearGradient id="SVGID_1_" gradientUnits="userSpaceOnUse" x1="87.4194" y1="93.0554" x2="131.3548" y2="93.0554" gradientTransform="matrix(6.123234e-17 1 -1 6.123234e-17 169.2581 -49.5161)">
		<stop  offset="0" style="stop-color:#0077C0"/>
		<stop  offset="0.3217" style="stop-color:#007CC4"/>
		<stop  offset="0.6918" style="stop-color:#008ACE"/>
		<stop  offset="1" style="stop-color:#009BDB"/>
	</linearGradient>
	<circle class="st10" cx="76.2" cy="59.9" r="22"/>
	<polygon class="st0" points="84.1,55.8 81.2,53.3 84.2,52.6 	"/>
	<polygon class="st0" points="76.4,76.8 70.6,67.2 76.4,60.5 80.8,69.1 	"/>
	<polygon class="st8" points="76.4,71.3 74.5,67.1 76.4,66.1 78.2,67.1 	"/>
	<polygon class="st11" points="110.9,62.1 114.6,66.2 118.3,62.2 118.1,61.5 111,61.5 	"/>
	<polygon class="st11" points="187.2,62.1 190.9,66.2 194.5,62.2 194.3,61.5 187.3,61.5 	"/>
	<path class="st8" d="M147.3,63.5c0,0-0.4,6.6,6.6,6.2c5.1,0,5.4-5.4,5.4-6.2c0-0.8,3.3-0.4,3.3-0.4s0.4,9.6-8.9,9.5
		c-9.3-0.1-9.4-5.6-9.8-9C143.5,60.3,147.3,63.5,147.3,63.5z"/>
	<circle class="st0" cx="67" cy="58.9" r="11.2"/>
	<circle class="st0" cx="85.3" cy="58.9" r="11.2"/>
	<circle class="st8" cx="66.8" cy="58.9" r="6.1"/>
	<polygon class="st0" points="65.7,55.8 62.7,53.3 65.8,52.6 	"/>
	<circle class="st8" cx="85.3" cy="58.9" r="6.1"/>
	<polygon class="st0" points="84.1,55.8 81.2,53.3 84.3,52.6 	"/>
	
		<image style="display:none;overflow:visible;" width="1406" height="425" xlink:href="../../../../Downloads/logo-gris-horizontal (1).png"  transform="matrix(0.1178 0 0 0.1178 51.2073 34.391)">
	</image>
</g>
<g id="Layer_3">
</g>
</svg>
