<svg id="Layer_1" data-name="Layer 1" xmlns="http://www.w3.org/2000/svg" xmlns:xlink="http://www.w3.org/1999/xlink" viewBox="0 0 550 112.46"><defs><style>.cls-1{fill:#fff;}.cls-2{fill:#747474;}.cls-3{fill:#e85127;}.cls-4{fill:#7db828;}.cls-5{fill:#319ed9;}.cls-6{fill:#fab70f;}.cls-7{fill:#57575a;}.cls-8{fill:#0077c0;}.cls-9{fill:url(#linear-gradient);}.cls-10{fill:#00ace4;}</style><linearGradient id="linear-gradient" x1="87.42" y1="93.06" x2="131.35" y2="93.06" gradientTransform="translate(169.26 -49.52) rotate(90)" gradientUnits="userSpaceOnUse"><stop offset="0" stop-color="#0077c0"/><stop offset="0.32" stop-color="#007cc4"/><stop offset="0.69" stop-color="#008ace"/><stop offset="1" stop-color="#009bdb"/></linearGradient></defs><g id="Layer_2" data-name="Layer 2"><g id="Capa_1" data-name="Capa 1"><path class="cls-1" d="M509.12.12V0H282l.27.11H267.76L268,0H40.92V.12A40.92,40.92,0,0,0,0,41v71.42H550V41A40.92,40.92,0,0,0,509.12.12Z"/><polygon class="cls-2" points="372.67 68.93 372.67 49.37 372.53 49.37 364.68 68.93 361.54 68.93 353.56 49.37 353.42 49.37 353.42 68.93 349.26 68.93 349.26 43.51 355.63 43.51 363.19 62.39 370.97 43.51 377.09 43.51 377.09 68.93 372.67 68.93"/><path class="cls-2" d="M383.48,43a2.62,2.62,0,0,0-1.84.72,2.34,2.34,0,0,0-.78,1.79,2.28,2.28,0,0,0,.77,1.75,2.69,2.69,0,0,0,1.85.7,2.73,2.73,0,0,0,1.87-.7,2.28,2.28,0,0,0,.77-1.75,2.37,2.37,0,0,0-.75-1.77,2.61,2.61,0,0,0-1.89-.74m2.13,7.76h-4.34V68.93h4.34Z"/><path class="cls-2" d="M398.54,50.27a10.74,10.74,0,0,0-5.27,1.26,8.4,8.4,0,0,0-3.48,3.53,11.2,11.2,0,0,0-1.2,5.24,9.63,9.63,0,0,0,1.16,4.7A8.08,8.08,0,0,0,393,68.23a9.68,9.68,0,0,0,4.74,1.14A10.57,10.57,0,0,0,403,68.16h0v-4l-.18.13a8.07,8.07,0,0,1-2.12,1.1,6.72,6.72,0,0,1-2.08.39,5.33,5.33,0,0,1-4.05-1.56,6,6,0,0,1-1.5-4.33,6.26,6.26,0,0,1,1.56-4.45,5.34,5.34,0,0,1,4.06-1.66,7,7,0,0,1,4.13,1.42l.18.13V51.24h-.06a7,7,0,0,0-2-.67,12.36,12.36,0,0,0-2.42-.26"/><path class="cls-2" d="M410.63,53.87V50.71H406.3V68.93h4.33V59.61a6.48,6.48,0,0,1,1.08-3.87,3.33,3.33,0,0,1,2.81-1.46,4.75,4.75,0,0,1,1.3.19,3.33,3.33,0,0,1,1,.4L417,55V50.68h-.07a5,5,0,0,0-4.59.75,5.81,5.81,0,0,0-1.67,2.44Z"/><path class="cls-2" d="M427.06,50.28a9,9,0,0,0-9.76,8.17,10,10,0,0,0,0,1.55,8.7,8.7,0,0,0,8,9.34,9.55,9.55,0,0,0,1.31,0,9.44,9.44,0,0,0,7-2.65,9.71,9.71,0,0,0,2.59-7.07,9.49,9.49,0,0,0-2.43-6.87,9,9,0,0,0-6.75-2.5m-.19,15.54a4.66,4.66,0,0,1-3.74-1.55,6.52,6.52,0,0,1-1.34-4.38,6.76,6.76,0,0,1,1.34-4.49,4.59,4.59,0,0,1,3.7-1.58,4.55,4.55,0,0,1,3.6,1.51,6.67,6.67,0,0,1,1.32,4.46,7.09,7.09,0,0,1-1.24,4.51,4.44,4.44,0,0,1-3.64,1.52"/><path class="cls-2" d="M445.37,50.27a8.06,8.06,0,0,0-5.08,1.56,4.91,4.91,0,0,0-2,4,5.67,5.67,0,0,0,.42,2.26A4.55,4.55,0,0,0,440,59.78a11.37,11.37,0,0,0,2.66,1.48,18.38,18.38,0,0,1,2.22,1,3.18,3.18,0,0,1,1,.79,1.77,1.77,0,0,1,.27,1c0,1.22-.93,1.81-2.84,1.81a7.81,7.81,0,0,1-2.39-.43,9,9,0,0,1-2.46-1.23l-.18-.13v4.18h.06a11.19,11.19,0,0,0,2.33.71,12.24,12.24,0,0,0,2.48.28,8.49,8.49,0,0,0,5.37-1.56,5,5,0,0,0,2-4.14,4.74,4.74,0,0,0-1.07-3.13,9.37,9.37,0,0,0-3.66-2.3,9.43,9.43,0,0,1-2.6-1.34,1.86,1.86,0,0,1-.52-1.4,1.56,1.56,0,0,1,.66-1.3,3.1,3.1,0,0,1,1.87-.52,8,8,0,0,1,2.22.34,6.69,6.69,0,0,1,1.94.89l.18.12v-4h-.07a9.24,9.24,0,0,0-2-.54,12,12,0,0,0-2.16-.23"/><path class="cls-2" d="M462.21,50.28a9,9,0,0,0-9.76,8.17,10,10,0,0,0,0,1.55,8.7,8.7,0,0,0,8,9.34,9.55,9.55,0,0,0,1.31,0,9.44,9.44,0,0,0,7-2.65,9.71,9.71,0,0,0,2.59-7.07A9.48,9.48,0,0,0,469,52.78a9,9,0,0,0-6.75-2.5M462,65.82a4.66,4.66,0,0,1-3.74-1.55,6.52,6.52,0,0,1-1.34-4.38,6.76,6.76,0,0,1,1.34-4.49,4.59,4.59,0,0,1,3.7-1.58,4.55,4.55,0,0,1,3.6,1.51,6.67,6.67,0,0,1,1.32,4.46,7.09,7.09,0,0,1-1.24,4.51A4.44,4.44,0,0,1,462,65.82"/><path class="cls-2" d="M494.51,54.21v-3.5h-4.39V45.28H490l-4.12,1.25h-.08v4.11h-6.51V48.42A3.63,3.63,0,0,1,480,46a2.56,2.56,0,0,1,2-.81,4.67,4.67,0,0,1,1.91.43l.16.07V42H484a7.42,7.42,0,0,0-2.43-.32,7.2,7.2,0,0,0-3.46.82,5.9,5.9,0,0,0-2.38,2.32,6.83,6.83,0,0,0-.84,3.4v2.52h-3.05v3.5h3.05V68.93h4.39V54.21h6.51v9.36c0,3.85,1.84,5.8,5.46,5.8a9.07,9.07,0,0,0,1.87-.2,5,5,0,0,0,1.35-.43h.06V65.18l-.18.12a3.72,3.72,0,0,1-1.74.52,2.36,2.36,0,0,1-1.87-.67,3.53,3.53,0,0,1-.6-2.34v-8.6Z"/><rect class="cls-3" x="293.49" y="35.02" width="20.39" height="20.16"/><rect class="cls-4" x="316.01" y="35.02" width="20.39" height="20.16"/><rect class="cls-5" x="293.49" y="57.28" width="20.39" height="20.16"/><rect class="cls-6" x="316.01" y="57.28" width="20.39" height="20.16"/><rect class="cls-2" x="248.79" y="37.03" width="1.12" height="38.4"/></g></g><g id="Layer_2-2" data-name="Layer 2"><rect class="cls-1" x="41.16" y="26.16" width="179.23" height="59.61"/><polygon class="cls-7" points="107.74 72.06 104.13 72.06 112.64 46.26 115.64 46.26 107.74 72.06"/><polygon class="cls-7" points="121.52 72.14 125.64 72.14 116.89 46.26 113.1 46.26 121.52 72.14"/><polygon class="cls-7" points="184.09 72.06 180.48 72.06 189 46.26 192 46.26 184.09 72.06"/><polygon class="cls-7" points="197.87 72.14 202 72.14 193.24 46.26 189.45 46.26 197.87 72.14"/><polygon class="cls-7" points="124.97 72.14 128.33 72.14 128.33 46.07 124.89 46.07 124.97 72.14"/><polygon class="cls-7" points="204.51 72.14 207.94 72.14 207.94 57.65 204.44 57.65 204.51 72.14"/><polygon class="cls-7" points="164.66 72.14 168.15 72.14 168.15 46.07 164.58 46.07 164.66 72.14"/><polygon class="cls-7" points="167.89 58.4 167.65 62.48 183.06 46.05 178.89 46.07 167.89 58.4"/><polygon class="cls-7" points="205.6 58.69 207.69 61.07 216.79 46.05 213.1 46.05 205.6 58.69"/><polygon class="cls-7" points="206.91 58.69 204.83 61.07 195.72 46.05 199.41 46.05 206.91 58.69"/><polygon class="cls-7" points="169.78 60.2 179.25 72.14 183.55 72.14 172.03 57.29 169.78 60.2"/><polygon class="cls-7" points="143.96 63.9 147.31 63.9 147.31 46.07 143.89 46.07 143.96 63.9"/><polygon class="cls-7" points="159.28 63.9 162.63 63.9 162.63 46.07 159.21 46.07 159.28 63.9"/><polygon class="cls-7" points="140.64 72.14 145.1 72.14 135.64 60.47 131.98 61.19 140.64 72.14"/><polygon class="cls-7" points="128.07 58.88 128.14 61.67 135.64 61.67 135.64 58.87 128.07 58.88"/><polygon class="cls-7" points="128.07 46.09 128.12 49 132.84 49 132.84 46.07 128.07 46.09"/><path class="cls-7" d="M131.35,58.87s6.37.61,6.34-5.1S131.43,49,131.43,49l-.08-2.92h3.27s5.61.48,6.46,5.48-1.93,7.58-3.36,8.3-3.46,1.68-3.46,1.68l-2.57-1.27Z"/><g id="Layer_4" data-name="Layer 4"><circle class="cls-8" cx="76.14" cy="59.42" r="25.03"/></g><g id="Layer_5" data-name="Layer 5"><polyline class="cls-8" points="52.44 51.36 52.44 42.16 54.76 42.16 52.44 41.03 52.44 40.39 56.53 40.39 52.44 38.15 52.44 36.95 65.64 36.95"/><polyline class="cls-8" points="99.93 51.36 99.93 42.16 97.61 42.16 99.93 41.03 99.93 40.39 95.83 40.39 99.93 38.15 99.93 36.95 86.72 36.95"/></g><circle class="cls-9" cx="76.2" cy="59.87" r="21.97"/><polygon class="cls-1" points="84.11 55.82 81.19 53.27 84.23 52.58 84.11 55.82"/><polygon class="cls-1" points="76.36 76.81 70.58 67.19 76.36 60.55 80.75 69.1 76.36 76.81"/><polygon class="cls-7" points="76.44 71.28 74.52 67.07 76.44 66.06 78.2 67.1 76.44 71.28"/><polygon class="cls-10" points="110.9 62.1 114.62 66.16 118.27 62.16 118.07 61.55 111.02 61.55 110.9 62.1"/><polygon class="cls-10" points="187.18 62.1 190.89 66.16 194.55 62.16 194.34 61.55 187.29 61.55 187.18 62.1"/><path class="cls-7" d="M147.31,63.54s-.42,6.56,6.59,6.19c5.13,0,5.39-5.44,5.38-6.19s3.35-.36,3.35-.36.42,9.6-8.87,9.46-9.36-5.62-9.8-9S147.31,63.54,147.31,63.54Z"/><circle class="cls-1" cx="66.95" cy="58.85" r="11.21"/><circle class="cls-1" cx="85.31" cy="58.85" r="11.21"/><circle class="cls-7" cx="66.82" cy="58.85" r="6.15"/><polygon class="cls-1" points="65.66 55.82 62.74 53.27 65.77 52.58 65.66 55.82"/><circle class="cls-7" cx="85.31" cy="58.85" r="6.15"/><polygon class="cls-1" points="84.14 55.82 81.23 53.27 84.26 52.58 84.14 55.82"/></g></svg>