<svg xmlns="http://www.w3.org/2000/svg" viewBox="0 0 364.16 40.89"><defs><style>.cls-1{fill:#fff;}.cls-2{fill:#01b6a9;}</style></defs><g id="Layer_2" data-name="Layer 2"><g id="Capa_1" data-name="Capa 1"><path class="cls-1" d="M14.78,27.62a.76.76,0,0,1-.41-.13.75.75,0,0,1-.31-.6V23.15a4.28,4.28,0,1,1,8.56,0v.94a.73.73,0,0,1-.45.68L15,27.57A.74.74,0,0,1,14.78,27.62Zm3.56-7.38a2.89,2.89,0,0,0-2.85,2.91v2.68l5.71-2.24v-.44A2.89,2.89,0,0,0,18.34,20.24Zm3.57,3.85Z"/><path class="cls-1" d="M18.34,40.89h0a.68.68,0,0,1-.57-.3l-3.57-5a.73.73,0,0,1-.1-.64.7.7,0,0,1,.43-.47L21.2,32V30.69L15,33.07a.68.68,0,0,1-.66-.08.75.75,0,0,1-.31-.6V29.67a.73.73,0,0,1,.46-.67l7.28-2.89a8,8,0,0,0,5.07-7.24,1.85,1.85,0,0,0,0-.23,8.57,8.57,0,0,0-2.51-6.1,8.24,8.24,0,0,0-6-2.47,8.51,8.51,0,0,0-8.29,8.67,8.71,8.71,0,0,0,2.22,5.7.72.72,0,0,1,0,1,.71.71,0,0,1-1,0,10.13,10.13,0,0,1-2.59-6.66A9.93,9.93,0,0,1,18.33,8.62a9.63,9.63,0,0,1,7,2.88,10,10,0,0,1,2.93,7.14v.26a9.47,9.47,0,0,1-6,8.56l-6.83,2.71v1.17L21.66,29a.66.66,0,0,1,.65.08.71.71,0,0,1,.31.6v2.85a.73.73,0,0,1-.46.68l-6.25,2.36,2.43,3.4,3-4.16a.7.7,0,0,1,1-.16.72.72,0,0,1,.15,1l-3.56,5A.72.72,0,0,1,18.34,40.89Z"/><path class="cls-2" d="M18.34,6.75a.93.93,0,0,1-.91-.94V.93a.92.92,0,1,1,1.83,0V5.81A.93.93,0,0,1,18.34,6.75Z"/><path class="cls-2" d="M.92,19.62a.94.94,0,0,1,0-1.87H5.71a.94.94,0,0,1,0,1.87Z"/><path class="cls-2" d="M28.18,9.75a.91.91,0,0,1-.65-.27.94.94,0,0,1,0-1.32l2-2.07a.9.9,0,0,1,1.3,0,1,1,0,0,1,0,1.32l-2,2.07A.92.92,0,0,1,28.18,9.75Z"/><path class="cls-2" d="M9.78,11.16A1.18,1.18,0,0,1,9,10.81H9A1.21,1.21,0,0,1,9,9.11a1.16,1.16,0,0,1,1.65,0h0a1.21,1.21,0,0,1,0,1.69A1.18,1.18,0,0,1,9.78,11.16Z"/><path class="cls-2" d="M9.78,28.71A1.18,1.18,0,0,1,9,28.36H9a1.21,1.21,0,0,1,0-1.69,1.14,1.14,0,0,1,1.65,0h0a1.21,1.21,0,0,1,0,1.69A1.18,1.18,0,0,1,9.78,28.71Z"/><path class="cls-2" d="M30.2,31.71a.87.87,0,0,1-.64-.28l-2-2.06a.94.94,0,0,1,0-1.32.89.89,0,0,1,1.29,0l2,2.06a.94.94,0,0,1,0,1.32A.88.88,0,0,1,30.2,31.71Z"/><path class="cls-1" d="M47.91,27.94h-2.1l-1-2.94H40.25l-1,2.94H37.16l4.32-11.52h2.15Zm-3.64-4.49-1.6-4.6a4.76,4.76,0,0,1-.15-.72h0a4.71,4.71,0,0,1-.16.72l-1.59,4.6Z"/><path class="cls-1" d="M57.29,27.45a7,7,0,0,1-3.24.68,5.29,5.29,0,0,1-4-1.58,5.77,5.77,0,0,1-1.51-4.16,6,6,0,0,1,1.7-4.46,5.78,5.78,0,0,1,4.29-1.7,7,7,0,0,1,2.77.47v1.89a5,5,0,0,0-2.57-.69,4,4,0,0,0-3,1.2,4.37,4.37,0,0,0-1.16,3.2,4.19,4.19,0,0,0,1.08,3,3.8,3.8,0,0,0,2.85,1.13,5.15,5.15,0,0,0,2.83-.77Z"/><path class="cls-1" d="M68.94,27.94h-2.1l-1-2.94H61.27l-1,2.94H58.19L62.5,16.42h2.16ZM65.3,23.45l-1.6-4.6a4.76,4.76,0,0,1-.15-.72h0a6.33,6.33,0,0,1-.16.72l-1.59,4.6Z"/><path class="cls-1" d="M70.52,27.94V16.42h3.33q6.36,0,6.36,5.61a5.53,5.53,0,0,1-1.76,4.29,6.75,6.75,0,0,1-4.74,1.62Zm1.9-9.9v8.28H74a4.28,4.28,0,0,0,3.14-1.11,4.23,4.23,0,0,0,1.12-3.13q0-4-4.19-4Z"/><path class="cls-1" d="M88.79,27.94H82.32V16.42h6.21V18h-4.3V21.3h4v1.62h-4v3.4h4.56Z"/><path class="cls-1" d="M103.2,27.94h-1.89V20.48c0-.61,0-1.35.11-2.24h0a7,7,0,0,1-.32,1.09l-3.43,8.61H96.32l-3.45-8.55a9.39,9.39,0,0,1-.3-1.15h0c0,.46.06,1.21.06,2.26v7.44H90.83V16.42h2.69l3,7.67A11.49,11.49,0,0,1,97,25.41h0q.3-.91.48-1.35l3.09-7.64h2.59Z"/><path class="cls-1" d="M108,16.42V18h0v8.43h0v1.55H106V26.39h0V18h0V16.42Z"/><path class="cls-1" d="M120.25,27.94h-2.09l-1-2.94h-4.53l-1,2.94h-2.09l4.31-11.52H116Zm-3.63-4.49-1.6-4.6a4.76,4.76,0,0,1-.15-.72h0a4.71,4.71,0,0,1-.16.72l-1.58,4.6Z"/><path class="cls-1" d="M126.36,27.94V16.42h3.32q6.38,0,6.37,5.61a5.56,5.56,0,0,1-1.76,4.29,6.75,6.75,0,0,1-4.74,1.62Zm1.9-9.9v8.28h1.53a4.28,4.28,0,0,0,3.14-1.11,4.23,4.23,0,0,0,1.12-3.13q0-4-4.19-4Z"/><path class="cls-1" d="M144.62,27.94h-6.46V16.42h6.21V18h-4.3V21.3h4v1.62h-4v3.4h4.55Z"/><path class="cls-1" d="M152.46,27.93V16.41h3.47V27.93Z"/><path class="cls-1" d="M166.24,27.93l-4.06-5.56a13.48,13.48,0,0,1-.79-1.19h0c0,.57,0,1.21,0,1.91v4.84h-3.22V16.41h3.28l3.9,5.29a2.22,2.22,0,0,0,.17.24l.21.3.2.3a1.71,1.71,0,0,1,.14.26h0a11.05,11.05,0,0,1-.05-1.23V16.41h3.22V27.93Z"/><path class="cls-1" d="M179.6,27.93l-4.07-5.56a13.16,13.16,0,0,1-.78-1.19h0c0,.57,0,1.21,0,1.91v4.84h-3.21V16.41h3.28l3.89,5.29.18.24.21.3c.07.1.13.2.19.3a1.87,1.87,0,0,1,.15.26h0a11.05,11.05,0,0,1,0-1.23V16.41h3.21V27.93Z"/><path class="cls-1" d="M195.86,22.14a6.46,6.46,0,0,1-.74,3.1A5.42,5.42,0,0,1,193,27.37a6.3,6.3,0,0,1-6,0A5.26,5.26,0,0,1,185,25.33a6.13,6.13,0,0,1-.74-3,6.59,6.59,0,0,1,.75-3.16,5.38,5.38,0,0,1,2.1-2.18,6.11,6.11,0,0,1,3.07-.76,5.93,5.93,0,0,1,3,.73,5,5,0,0,1,2,2.1A6.52,6.52,0,0,1,195.86,22.14Zm-3.68.09a4.06,4.06,0,0,0-.54-2.24,1.73,1.73,0,0,0-1.5-.82,1.9,1.9,0,0,0-1.61.79,3.7,3.7,0,0,0-.58,2.23,3.63,3.63,0,0,0,.58,2.19,1.84,1.84,0,0,0,1.56.79,1.76,1.76,0,0,0,1.08-.36,2.26,2.26,0,0,0,.75-1A4.13,4.13,0,0,0,192.18,22.23Z"/><path class="cls-1" d="M204.06,27.93h-3.9l-3.72-11.52h3.74l1.76,7.09a9.68,9.68,0,0,1,.23,1.29h.08a8,8,0,0,1,.25-1.34l1.71-7h3.61Z"/><path class="cls-1" d="M216.27,27.93l-.51-2.12h-3.44l-.54,2.12H208l4-11.52h4.31L220,27.93Zm-2.19-9H214c0,.12-.05.34-.11.63s-.39,1.56-1,3.79h2.2l-.81-3.13A9.8,9.8,0,0,1,214.08,18.92Z"/><path class="cls-1" d="M230,27.62a9.78,9.78,0,0,1-3.3.51,6.8,6.8,0,0,1-3.17-.7,4.86,4.86,0,0,1-2-2,6.21,6.21,0,0,1-.7-3,6.53,6.53,0,0,1,.79-3.24,5.41,5.41,0,0,1,2.22-2.2,6.94,6.94,0,0,1,3.31-.77,11.5,11.5,0,0,1,2.89.36v3.2a4.18,4.18,0,0,0-1.15-.45,6.08,6.08,0,0,0-1.35-.16,3,3,0,0,0-2.23.81,3,3,0,0,0-.81,2.21,2.94,2.94,0,0,0,.81,2.18,3,3,0,0,0,2.19.8,5.61,5.61,0,0,0,2.54-.65Z"/><path class="cls-1" d="M231.74,27.93V16.41h3.47V27.93Z"/><path class="cls-1" d="M248.43,22.14a6.46,6.46,0,0,1-.74,3.1,5.42,5.42,0,0,1-2.09,2.13,6.3,6.3,0,0,1-6,0,5.26,5.26,0,0,1-2.07-2.06,6.12,6.12,0,0,1-.73-3,6.58,6.58,0,0,1,.74-3.16,5.38,5.38,0,0,1,2.1-2.18,6.11,6.11,0,0,1,3.07-.76,5.93,5.93,0,0,1,3,.73,5,5,0,0,1,2,2.1A6.52,6.52,0,0,1,248.43,22.14Zm-3.67.09a4.05,4.05,0,0,0-.55-2.24,1.73,1.73,0,0,0-1.5-.82,1.9,1.9,0,0,0-1.61.79,3.7,3.7,0,0,0-.58,2.23,3.63,3.63,0,0,0,.58,2.19,1.84,1.84,0,0,0,1.56.79,1.76,1.76,0,0,0,1.08-.36,2.26,2.26,0,0,0,.75-1A4.12,4.12,0,0,0,244.76,22.23ZM243,15.34h-2.42L243,12.76h2.87Z"/><path class="cls-1" d="M258.11,27.93l-4.06-5.56a13.48,13.48,0,0,1-.79-1.19h0c0,.57.05,1.21.05,1.91v4.84h-3.22V16.41h3.28l3.9,5.29a2.22,2.22,0,0,0,.17.24l.21.3.2.3a1.71,1.71,0,0,1,.14.26h0a11.05,11.05,0,0,1-.05-1.23V16.41h3.22V27.93Z"/><path class="cls-1" d="M269,27.93V16.41h7.17v2.72h-3.7V20.8h3.48v2.72h-3.48v1.69h4v2.72Z"/><path class="cls-1" d="M288.93,22a6.37,6.37,0,0,1-.74,3.1,5.07,5.07,0,0,1-2.1,2.08,6.66,6.66,0,0,1-3.15.73h-4.87V16.41h4.77Q288.93,16.41,288.93,22Zm-3.69,0a3.4,3.4,0,0,0-.34-1.52,2.55,2.55,0,0,0-1-1.05,3,3,0,0,0-1.49-.36h-.89v6.08h1a2.51,2.51,0,0,0,2-.85A3.42,3.42,0,0,0,285.24,22.06Z"/><path class="cls-1" d="M300.59,22.67a5.78,5.78,0,0,1-1.27,4.11,5.1,5.1,0,0,1-3.9,1.35,4.88,4.88,0,0,1-3.73-1.35,5.67,5.67,0,0,1-1.27-4.05V16.41h3.49v6.45a3,3,0,0,0,.41,1.71,1.34,1.34,0,0,0,1.18.6,1.37,1.37,0,0,0,1.19-.57,2.82,2.82,0,0,0,.4-1.66V16.41h3.5Z"/><path class="cls-1" d="M311.3,27.62a9.88,9.88,0,0,1-3.31.51,6.83,6.83,0,0,1-3.17-.7,4.86,4.86,0,0,1-2-2,6.33,6.33,0,0,1-.7-3,6.53,6.53,0,0,1,.79-3.24,5.47,5.47,0,0,1,2.22-2.2,7,7,0,0,1,3.31-.77,11.64,11.64,0,0,1,2.9.36v3.2a4.45,4.45,0,0,0-1.15-.45,6.22,6.22,0,0,0-1.35-.16,3,3,0,0,0-2.23.81,3,3,0,0,0-.82,2.21,2.9,2.9,0,0,0,.82,2.18,3,3,0,0,0,2.18.8,5.68,5.68,0,0,0,2.55-.65Z"/><path class="cls-1" d="M320.31,27.93l-.51-2.12h-3.44l-.54,2.12h-3.75l4-11.52h4.31l3.73,11.52Zm-2.19-9H318c0,.12-.05.34-.11.63s-.39,1.56-1,3.79h2.2l-.8-3.13A9.92,9.92,0,0,1,318.12,18.92Z"/><path class="cls-1" d="M331.25,19.13v8.8h-3.49v-8.8h-3.22V16.41h10v2.72Z"/><path class="cls-1" d="M335.89,27.93V16.41h3.47V27.93Z"/><path class="cls-1" d="M348.19,27.93h-3.9l-3.72-11.52h3.74l1.76,7.09a8.26,8.26,0,0,1,.23,1.29h.08a8,8,0,0,1,.25-1.34l1.71-7H352Z"/><path class="cls-1" d="M360.4,27.93l-.51-2.12h-3.44l-.54,2.12h-3.76l4-11.52h4.31l3.73,11.52Zm-2.19-9h-.08c0,.12-.05.34-.11.63s-.39,1.56-1,3.79h2.2l-.81-3.13A9.8,9.8,0,0,1,358.21,18.92Z"/></g></g></svg>