<svg xmlns="http://www.w3.org/2000/svg" viewBox="0 0 550 112.46"><defs><style>.cls-1{fill:#fff;}.cls-2{fill:#01a48f;}.cls-3{fill:#747474;}.cls-4{fill:#e85127;}.cls-5{fill:#7db828;}.cls-6{fill:#319ed9;}.cls-7{fill:#fab70f;}</style></defs><g id="Layer_2" data-name="Layer 2"><g id="Capa_1" data-name="Capa 1"><path class="cls-1" d="M509.12.12l0-.12H282l.27.11H267.76L268,0H40.92l0,.12A40.92,40.92,0,0,0,0,41v71.42H550V41A40.92,40.92,0,0,0,509.12.12Z"/><path class="cls-2" d="M81.69,73.61H78.62v2.85H82v.86H77.6v-7.9h4.26v.86H78.62v2.49h3.07Z"/><path class="cls-2" d="M89.49,69.53a13.76,13.76,0,0,1,2.17-.17,4.48,4.48,0,0,1,3.19,1A3.59,3.59,0,0,1,96,73.18a4.18,4.18,0,0,1-1.14,3.07,4.86,4.86,0,0,1-3.49,1.14,15.83,15.83,0,0,1-1.85-.1Zm1,7a7.32,7.32,0,0,0,1,.06,3,3,0,0,0,3.36-3.35c0-1.87-1-3-3.2-3a5.63,5.63,0,0,0-1.19.11Z"/><path class="cls-2" d="M104.43,69.42v4.67c0,1.77.79,2.52,1.84,2.52s1.92-.77,1.92-2.52V69.42h1V74c0,2.43-1.28,3.42-3,3.42s-2.84-.92-2.84-3.37V69.42Z"/><path class="cls-2" d="M122.64,77.06a5.25,5.25,0,0,1-2.09.37,3.69,3.69,0,0,1-3.9-4,3.93,3.93,0,0,1,4.12-4.15,4.26,4.26,0,0,1,1.88.35l-.25.84a3.62,3.62,0,0,0-1.59-.33,2.93,2.93,0,0,0-3.08,3.25,2.87,2.87,0,0,0,3,3.18,4.1,4.1,0,0,0,1.67-.33Z"/><path class="cls-2" d="M131.36,74.83l-.82,2.49h-1l2.68-7.9h1.23l2.7,7.9H135l-.85-2.49ZM134,74l-.77-2.28c-.18-.51-.29-1-.41-1.44h0c-.12.47-.25,1-.4,1.43L131.57,74Z"/><path class="cls-2" d="M148.72,77.06a5.16,5.16,0,0,1-2.08.37,3.68,3.68,0,0,1-3.9-4,3.93,3.93,0,0,1,4.12-4.15,4.24,4.24,0,0,1,1.87.35l-.24.84a3.69,3.69,0,0,0-1.59-.33,2.93,2.93,0,0,0-3.08,3.25,2.87,2.87,0,0,0,3,3.18,4,4,0,0,0,1.66-.33Z"/><path class="cls-2" d="M157.14,69.42v7.9h-1v-7.9Z"/><path class="cls-2" d="M171.8,73.29c0,2.71-1.65,4.15-3.67,4.15s-3.55-1.61-3.55-4,1.56-4.15,3.67-4.15S171.8,70.94,171.8,73.29Zm-6.13.13c0,1.68.92,3.19,2.52,3.19s2.53-1.48,2.53-3.28c0-1.57-.82-3.21-2.52-3.21S165.67,71.68,165.67,73.42Zm4.23-5.81L168.41,69h-.84l1.09-1.35Z"/><path class="cls-2" d="M179.25,77.32v-7.9h1.11l2.53,4A21.89,21.89,0,0,1,184.31,76h0c-.09-1.06-.12-2-.12-3.25v-3.3h1v7.9h-1l-2.5-4a25.23,25.23,0,0,1-1.48-2.64l0,0c.06,1,.08,1.94.08,3.25v3.38Z"/><path class="cls-3" d="M72.44,52.75A7.12,7.12,0,1,1,62.35,42.69a6.84,6.84,0,0,1,5-2.1,6.94,6.94,0,0,1,5,2.1l3.36-3.36A12.7,12.7,0,0,0,72,36.79a11.57,11.57,0,0,0-4.6-1A11.39,11.39,0,0,0,59,39.3a11.87,11.87,0,0,0,0,16.81,11.87,11.87,0,0,0,13,2.56,12.34,12.34,0,0,0,3.81-2.56Z"/><path class="cls-3" d="M77.53,35.88h7.65a8.61,8.61,0,0,1,6.12,2.41,6.91,6.91,0,0,1,2.28,5.41v.73a7.16,7.16,0,0,1-1.49,4.44,6,6,0,0,1-3.37,2.39L94,59.46H88.28l-6-9.2v9.2H77.54Zm8.09,11.35a2.63,2.63,0,0,0,2.16-.93,3.23,3.23,0,0,0,.94-2.46,2.93,2.93,0,0,0-.94-2.3,4.22,4.22,0,0,0-2.89-.95H82.24v6.63Z"/><path class="cls-3" d="M96.22,35.91h4.72V59.46H96.22Z"/><polygon class="cls-3" points="102.98 35.91 102.98 40.62 108.87 40.62 108.87 59.46 113.59 59.46 113.59 40.62 119.47 40.62 119.47 35.91 102.98 35.91"/><polygon class="cls-3" points="135.64 40.62 135.64 35.91 121.52 35.91 121.52 59.46 135.64 59.46 135.64 54.74 126.24 54.74 126.24 50.04 133.29 50.04 133.29 45.33 126.24 45.33 126.24 40.62 135.64 40.62"/><path class="cls-3" d="M137.82,35.88h7.65a8.59,8.59,0,0,1,6.12,2.41,6.91,6.91,0,0,1,2.28,5.41v.73a7.16,7.16,0,0,1-1.49,4.44A6,6,0,0,1,149,51.26l5.31,8.2h-5.75l-6-9.2v9.2h-4.72Zm8.09,11.35a2.62,2.62,0,0,0,2.16-.93,3.23,3.23,0,0,0,.94-2.46,2.93,2.93,0,0,0-.94-2.3,4.21,4.21,0,0,0-2.89-.95h-2.64v6.63Z"/><polygon class="cls-3" points="154.57 35.91 154.57 40.62 160.46 40.62 160.46 59.46 165.18 59.46 165.18 40.62 171.06 40.62 171.06 35.91 154.57 35.91"/><polygon class="cls-3" points="187.23 40.62 187.23 35.91 173.1 35.91 173.1 59.46 187.23 59.46 187.23 54.74 177.82 54.74 177.82 50.04 184.88 50.04 184.88 45.33 177.82 45.33 177.82 40.62 187.23 40.62"/><path class="cls-3" d="M205.79,52.75A7.12,7.12,0,1,1,195.7,42.69a6.84,6.84,0,0,1,5-2.1,6.94,6.94,0,0,1,5,2.1l3.36-3.36a12.7,12.7,0,0,0-3.81-2.54,12.54,12.54,0,0,0-4.61-1,11.93,11.93,0,0,0-11.88,11.91,11.89,11.89,0,0,0,16.5,11,12.34,12.34,0,0,0,3.81-2.56Z"/><circle class="cls-3" cx="200.66" cy="47.64" r="3.58"/><polygon class="cls-3" points="372.67 68.93 372.67 49.37 372.53 49.37 364.68 68.93 361.54 68.93 353.56 49.37 353.42 49.37 353.42 68.93 349.26 68.93 349.26 43.51 355.63 43.51 363.19 62.39 370.97 43.51 377.09 43.51 377.09 68.93 372.67 68.93"/><path class="cls-3" d="M383.48,43a2.6,2.6,0,0,0-1.84.72,2.34,2.34,0,0,0-.78,1.79,2.3,2.3,0,0,0,.77,1.75,2.66,2.66,0,0,0,1.85.7,2.71,2.71,0,0,0,1.87-.7,2.3,2.3,0,0,0,.77-1.75,2.39,2.39,0,0,0-.75-1.77,2.59,2.59,0,0,0-1.89-.74m2.13,7.76h-4.34V68.93h4.34Z"/><path class="cls-3" d="M398.54,50.27a10.78,10.78,0,0,0-5.27,1.26,8.4,8.4,0,0,0-3.48,3.53,11.19,11.19,0,0,0-1.2,5.24A9.56,9.56,0,0,0,389.75,65,8.11,8.11,0,0,0,393,68.23a9.69,9.69,0,0,0,4.74,1.14A10.51,10.51,0,0,0,403,68.16l0,0V64.2l-.18.13a8.36,8.36,0,0,1-2.12,1.1,6.56,6.56,0,0,1-2.08.39,5.34,5.34,0,0,1-4.05-1.56,6,6,0,0,1-1.5-4.33,6.26,6.26,0,0,1,1.56-4.45,5.34,5.34,0,0,1,4.06-1.66,7,7,0,0,1,4.13,1.42l.18.13V51.24l-.06,0a7.16,7.16,0,0,0-2-.67,12.17,12.17,0,0,0-2.42-.26"/><path class="cls-3" d="M410.63,53.87V50.71H406.3V68.93h4.33V59.61a6.52,6.52,0,0,1,1.08-3.87,3.34,3.34,0,0,1,2.81-1.46,4.92,4.92,0,0,1,1.3.19,3.26,3.26,0,0,1,1,.4L417,55V50.68l-.07,0a4.49,4.49,0,0,0-1.69-.25,4.42,4.42,0,0,0-2.9,1,5.77,5.77,0,0,0-1.67,2.44Z"/><path class="cls-3" d="M427.06,50.28A9,9,0,0,0,417.3,60a8.7,8.7,0,0,0,9.32,9.34,9.42,9.42,0,0,0,7-2.65,9.72,9.72,0,0,0,2.59-7.07,9.49,9.49,0,0,0-2.43-6.87,9,9,0,0,0-6.75-2.5m-.19,15.54a4.69,4.69,0,0,1-3.74-1.55,6.52,6.52,0,0,1-1.34-4.38,6.78,6.78,0,0,1,1.34-4.49,4.6,4.6,0,0,1,3.7-1.58,4.54,4.54,0,0,1,3.6,1.51,6.65,6.65,0,0,1,1.32,4.46,7.07,7.07,0,0,1-1.24,4.51,4.42,4.42,0,0,1-3.64,1.52"/><path class="cls-3" d="M445.37,50.27a8,8,0,0,0-5.08,1.56,4.91,4.91,0,0,0-2,4,5.66,5.66,0,0,0,.42,2.26,4.48,4.48,0,0,0,1.32,1.69,11.27,11.27,0,0,0,2.66,1.48,18.79,18.79,0,0,1,2.22,1,3.24,3.24,0,0,1,1,.79,1.8,1.8,0,0,1,.27,1c0,1.22-.93,1.81-2.84,1.81a7.76,7.76,0,0,1-2.39-.43,9,9,0,0,1-2.46-1.23l-.18-.13v4.18l.06,0a11.36,11.36,0,0,0,2.33.71,12.46,12.46,0,0,0,2.48.28,8.47,8.47,0,0,0,5.37-1.56,5,5,0,0,0,2-4.14,4.73,4.73,0,0,0-1.07-3.13,9.33,9.33,0,0,0-3.66-2.3,9.3,9.3,0,0,1-2.6-1.34,1.83,1.83,0,0,1-.52-1.4,1.56,1.56,0,0,1,.66-1.3,3.05,3.05,0,0,1,1.87-.52,7.82,7.82,0,0,1,2.22.34,6.81,6.81,0,0,1,1.94.89l.18.12v-4l-.07,0a9.24,9.24,0,0,0-2-.54,12,12,0,0,0-2.16-.23"/><path class="cls-3" d="M462.21,50.28A9,9,0,0,0,452.45,60a8.7,8.7,0,0,0,9.32,9.34,9.42,9.42,0,0,0,7-2.65,9.72,9.72,0,0,0,2.59-7.07A9.49,9.49,0,0,0,469,52.78a9,9,0,0,0-6.75-2.5M462,65.82a4.69,4.69,0,0,1-3.74-1.55,6.52,6.52,0,0,1-1.34-4.38,6.78,6.78,0,0,1,1.34-4.49,4.6,4.6,0,0,1,3.7-1.58,4.54,4.54,0,0,1,3.6,1.51,6.65,6.65,0,0,1,1.32,4.46,7.07,7.07,0,0,1-1.24,4.51A4.42,4.42,0,0,1,462,65.82"/><path class="cls-3" d="M494.51,54.21v-3.5h-4.39V45.28l-.15,0-4.12,1.25-.08,0v4.11h-6.51V48.42A3.6,3.6,0,0,1,480,46a2.54,2.54,0,0,1,2-.81,4.67,4.67,0,0,1,1.91.43l.16.07V42L484,42a7.6,7.6,0,0,0-2.43-.32,7.13,7.13,0,0,0-3.46.82,5.91,5.91,0,0,0-2.38,2.32,6.94,6.94,0,0,0-.84,3.4v2.52h-3.05v3.5h3.05V68.93h4.39V54.21h6.51v9.36c0,3.85,1.84,5.8,5.46,5.8a9.45,9.45,0,0,0,1.87-.2,5.06,5.06,0,0,0,1.35-.43l.06,0V65.18l-.18.12a3,3,0,0,1-.88.38,3.22,3.22,0,0,1-.86.14,2.36,2.36,0,0,1-1.87-.67,3.56,3.56,0,0,1-.6-2.34v-8.6Z"/><rect class="cls-4" x="293.49" y="35.02" width="20.39" height="20.16"/><rect class="cls-5" x="316.01" y="35.02" width="20.39" height="20.16"/><rect class="cls-6" x="293.49" y="57.28" width="20.39" height="20.16"/><rect class="cls-7" x="316.01" y="57.28" width="20.39" height="20.16"/><rect class="cls-3" x="248.79" y="37.03" width="1.12" height="38.4"/></g></g></svg>